<?xml version="1.0" standalone="no"?>
<!DOCTYPE svg PUBLIC "-//W3C//DTD SVG 20010904//EN"
 "http://www.w3.org/TR/2001/REC-SVG-20010904/DTD/svg10.dtd">
<svg version="1.0" xmlns="http://www.w3.org/2000/svg"
 width="260.000000pt" height="260.000000pt" viewBox="0 0 260.000000 260.000000"
 preserveAspectRatio="xMidYMid meet">
<metadata>
Created by potrace 1.11, written by Peter Selinger 2001-2013
</metadata>
<g transform="translate(0.000000,260.000000) scale(0.100000,-0.100000)"
fill="#000000" stroke="none">
<path d="M0 1300 l0 -1300 1300 0 1300 0 0 1300 0 1300 -1300 0 -1300 0 0
-1300z m800 295 l0 -65 -110 0 -110 0 0 -320 0 -320 -80 0 -80 0 0 320 0 320
-115 0 -115 0 0 65 0 65 305 0 305 0 0 -65z m1510 -145 l50 0 0 -55 0 -55 -50
0 -50 0 0 -164 c0 -184 3 -193 65 -182 33 7 35 5 35 -21 0 -15 3 -38 6 -50 5
-18 0 -23 -33 -32 -54 -15 -106 -14 -154 6 -63 25 -69 49 -69 263 l0 180 -35
0 -35 0 0 55 0 55 35 0 35 0 0 58 0 57 73 42 72 42 3 -99 3 -100 49 0z m-1075
-18 c77 -39 118 -101 134 -203 18 -109 36 -99 -174 -99 l-185 0 0 -27 c0 -34
30 -82 62 -99 52 -29 127 -4 143 47 6 17 13 20 38 16 18 -3 51 -9 74 -12 l43
-7 -16 -31 c-28 -55 -84 -106 -137 -123 -61 -20 -166 -15 -220 11 -107 50
-162 181 -137 323 21 122 75 189 180 223 43 14 152 4 195 -19z m581 13 c53
-15 106 -61 123 -107 10 -26 9 -27 -40 -37 -73 -16 -84 -14 -119 20 -29 29
-34 31 -91 27 -104 -8 -120 -55 -27 -82 248 -71 276 -85 298 -152 29 -86 -34
-190 -133 -219 -111 -33 -248 -11 -316 51 -42 37 -69 90 -55 104 5 4 38 11 74
15 65 6 65 6 82 -24 19 -35 53 -51 106 -51 42 0 80 17 96 42 18 29 -12 46
-133 78 -158 42 -194 67 -215 153 -17 70 42 156 125 182 59 18 164 18 225 0z"/>
<path d="M1073 1340 c-27 -11 -63 -66 -63 -97 0 -22 3 -23 110 -23 122 0 123
1 96 65 -23 53 -86 78 -143 55z"/>
</g>
</svg>
